<?xml version="1.0" encoding="UTF-8" standalone="no"?>
<!DOCTYPE svg PUBLIC "-//W3C//DTD SVG 1.1//EN" "http://www.w3.org/Graphics/SVG/1.1/DTD/svg11.dtd">
<svg width="100%" height="100%" viewBox="0 0 921 1004" version="1.1" xmlns="http://www.w3.org/2000/svg" xmlns:xlink="http://www.w3.org/1999/xlink" xml:space="preserve" xmlns:serif="http://www.serif.com/" style="fill-rule:evenodd;clip-rule:evenodd;stroke-linecap:round;stroke-linejoin:round;stroke-miterlimit:1.5;">
    <g transform="matrix(1,0,0,1,-500.493,-38.1187)">
        <g>
            <g transform="matrix(1.19653,0,0,1.19653,-38.0972,-179.185)">
                <circle cx="836.773" cy="604.548" r="381.418" style="fill:white;stroke:black;stroke-width:2.09px;"/>
            </g>
            <g transform="matrix(1.14095,0,0,1.14095,-605.674,-188.456)">
                <text x="1341.74px" y="523.225px" style="font-family:'ArialMT', 'Arial', sans-serif;font-size:24px;">y1</text>
            </g>
            <g transform="matrix(1.14095,0,0,1.14095,-605.674,80.979)">
                <text x="1341.74px" y="523.225px" style="font-family:'ArialMT', 'Arial', sans-serif;font-size:24px;">y1</text>
            </g>
            <g transform="matrix(1.14095,0,0,1.14095,75.4709,-71.9362)">
                <path d="M778,140L778,940" style="fill:none;stroke:black;stroke-width:2.19px;"/>
            </g>
            <g transform="matrix(-0.570474,-0.988089,0.988089,-0.570474,873.388,1620.96)">
                <path d="M778,140L778,940" style="fill:none;stroke:black;stroke-width:2.19px;"/>
            </g>
            <g transform="matrix(0.570474,-0.988089,0.988089,0.570474,-14.2688,1004.85)">
                <path d="M778,140L778,940" style="fill:none;stroke:black;stroke-width:2.19px;"/>
            </g>
            <g transform="matrix(1.14095,0,0,1.14095,-298.862,-293.85)">
                <path d="M1452.5,514C1463.81,514 1473,523.186 1473,534.5C1473,545.814 1463.81,555 1452.5,555C1441.19,555 1432,545.814 1432,534.5C1432,523.186 1441.19,514 1452.5,514ZM1452.5,519.125C1460.99,519.125 1467.88,526.014 1467.88,534.5C1467.88,542.986 1460.99,549.875 1452.5,549.875C1444.01,549.875 1437.12,542.986 1437.12,534.5C1437.12,526.014 1444.01,519.125 1452.5,519.125Z" style="fill:rgb(120,120,120);"/>
            </g>
            <g transform="matrix(1.14095,0,0,1.14095,-298.862,162.528)">
                <path d="M1452.5,514C1463.81,514 1473,523.186 1473,534.5C1473,545.814 1463.81,555 1452.5,555C1441.19,555 1432,545.814 1432,534.5C1432,523.186 1441.19,514 1452.5,514ZM1452.5,519.125C1460.99,519.125 1467.88,526.014 1467.88,534.5C1467.88,542.986 1460.99,549.875 1452.5,549.875C1444.01,549.875 1437.12,542.986 1437.12,534.5C1437.12,526.014 1444.01,519.125 1452.5,519.125Z" style="fill:rgb(120,120,120);"/>
            </g>
            <g transform="matrix(1.14095,0,0,1.14095,-694.098,390.718)">
                <path d="M1452.5,514C1463.81,514 1473,523.186 1473,534.5C1473,545.814 1463.81,555 1452.5,555C1441.19,555 1432,545.814 1432,534.5C1432,523.186 1441.19,514 1452.5,514ZM1452.5,519.125C1460.99,519.125 1467.88,526.014 1467.88,534.5C1467.88,542.986 1460.99,549.875 1452.5,549.875C1444.01,549.875 1437.12,542.986 1437.12,534.5C1437.12,526.014 1444.01,519.125 1452.5,519.125Z" style="fill:rgb(120,120,120);"/>
            </g>
            <g transform="matrix(1.14095,0,0,1.14095,-1087.26,162.528)">
                <path d="M1452.5,514C1463.81,514 1473,523.186 1473,534.5C1473,545.814 1463.81,555 1452.5,555C1441.19,555 1432,545.814 1432,534.5C1432,523.186 1441.19,514 1452.5,514ZM1452.5,519.125C1460.99,519.125 1467.88,526.014 1467.88,534.5C1467.88,542.986 1460.99,549.875 1452.5,549.875C1444.01,549.875 1437.12,542.986 1437.12,534.5C1437.12,526.014 1444.01,519.125 1452.5,519.125Z" style="fill:rgb(120,120,120);"/>
            </g>
            <g transform="matrix(1.14095,0,0,1.14095,-1087.26,-293.85)">
                <path d="M1452.5,514C1463.81,514 1473,523.186 1473,534.5C1473,545.814 1463.81,555 1452.5,555C1441.19,555 1432,545.814 1432,534.5C1432,523.186 1441.19,514 1452.5,514ZM1452.5,519.125C1460.99,519.125 1467.88,526.014 1467.88,534.5C1467.88,542.986 1460.99,549.875 1452.5,549.875C1444.01,549.875 1437.12,542.986 1437.12,534.5C1437.12,526.014 1444.01,519.125 1452.5,519.125Z" style="fill:rgb(120,120,120);"/>
            </g>
            <g transform="matrix(1.14095,0,0,1.14095,-694.098,-522.04)">
                <path d="M1452.5,514C1463.81,514 1473,523.186 1473,534.5C1473,545.814 1463.81,555 1452.5,555C1441.19,555 1432,545.814 1432,534.5C1432,523.186 1441.19,514 1452.5,514ZM1452.5,519.125C1460.99,519.125 1467.88,526.014 1467.88,534.5C1467.88,542.986 1460.99,549.875 1452.5,549.875C1444.01,549.875 1437.12,542.986 1437.12,534.5C1437.12,526.014 1444.01,519.125 1452.5,519.125Z" style="fill:rgb(120,120,120);"/>
            </g>
            <g transform="matrix(1.14095,0,0,1.14095,-211.689,-281.55)">
                <text x="1380.99px" y="492.184px" style="font-family:'ArialMT', 'Arial', sans-serif;font-size:34px;">p0</text>
            </g>
            <g transform="matrix(1.14095,0,0,1.14095,-192.322,195.366)">
                <text x="1380.99px" y="492.184px" style="font-family:'ArialMT', 'Arial', sans-serif;font-size:34px;">p1</text>
            </g>
            <g transform="matrix(1.14095,0,0,1.14095,-585.948,472.616)">
                <text x="1380.99px" y="492.184px" style="font-family:'ArialMT', 'Arial', sans-serif;font-size:34px;">p2</text>
            </g>
            <g transform="matrix(1.14095,0,0,1.14095,-1038.96,263.823)">
                <text x="1380.99px" y="492.184px" style="font-family:'ArialMT', 'Arial', sans-serif;font-size:34px;">p3</text>
            </g>
            <g transform="matrix(1.14095,0,0,1.14095,-1077.7,-221.08)">
                <text x="1380.99px" y="492.184px" style="font-family:'ArialMT', 'Arial', sans-serif;font-size:34px;">p4</text>
            </g>
            <g transform="matrix(1.14095,0,0,1.14095,-677.224,-496.048)">
                <text x="1380.99px" y="492.184px" style="font-family:'ArialMT', 'Arial', sans-serif;font-size:34px;">p5</text>
            </g>
            <g transform="matrix(5.9686e-17,0.992128,-2.05852,1.25535e-16,2721.1,-947.985)">
                <path d="M1274,662L1504,854L1274,854L1274,662Z" style="fill:white;stroke:rgb(59,59,59);stroke-width:9.28px;stroke-linecap:square;stroke-dasharray:23.21,23.21,0,0;"/>
            </g>
            <g transform="matrix(5.9686e-17,0.992128,-2.05852,1.25535e-16,2721.1,-719.796)">
                <path d="M1504,662L1504,854L1274,854L1504,662Z" style="fill:white;stroke:rgb(172,172,172);stroke-width:9.28px;stroke-linecap:square;stroke-dasharray:23.21,18.57,0,0;"/>
            </g>
            <g transform="matrix(0.51394,0,0,0.51394,802.008,225.67)">
                <path d="M458.534,534.723C429.02,482.379 373.591,450 313.5,450C373.591,450 429.02,482.379 458.534,534.723Z" style="fill:white;stroke:rgb(59,59,59);stroke-width:4.86px;"/>
            </g>
            <g transform="matrix(0.627007,0,0,0.627007,766.561,160.646)">
                <path d="M313.5,783C405.455,783 480,708.455 480,616.5C480,524.545 405.455,450 313.5,450C405.455,450 480,524.545 480,616.5C480,708.455 405.455,783 313.5,783Z" style="fill:white;stroke:rgb(172,172,172);stroke-width:3.99px;"/>
            </g>
            <g transform="matrix(1.14095,0,0,1.14095,-559.838,-125.962)">
                <text x="1345.2px" y="548.778px" style="font-family:'ArialMT', 'Arial', sans-serif;font-size:24px;">a1</text>
            </g>
            <g transform="matrix(1.14095,0,0,1.14095,-524.308,-14.1491)">
                <text x="1345.2px" y="548.778px" style="font-family:'ArialMT', 'Arial', sans-serif;font-size:24px;">a2</text>
            </g>
            <g transform="matrix(0.51394,0,0,0.51394,802.008,-0.858271)">
                <path d="M313.5,783C405.455,783 480,708.455 480,616.5C480,708.455 405.455,783 313.5,783Z" style="fill:white;stroke:rgb(59,59,59);stroke-width:4.86px;"/>
            </g>
            <g transform="matrix(0.51394,0,0,0.51394,802.008,455.521)">
                <path d="M480,616.5C480,524.545 405.455,450 313.5,450C405.455,450 480,524.545 480,616.5Z" style="fill:white;stroke:rgb(172,172,172);stroke-width:4.86px;"/>
            </g>
            <g transform="matrix(0.195591,0,0,0.195591,729.996,229.939)">
                <circle cx="1320" cy="568" r="35" style="fill:rgb(59,59,59);"/>
            </g>
            <g transform="matrix(0.195591,0,0,0.195591,729.996,636.116)">
                <circle cx="1320" cy="568" r="35" style="fill:rgb(59,59,59);"/>
            </g>
            <g transform="matrix(1.14095,0,0,1.14095,-573.728,-320.663)">
                <text x="1460.31px" y="540.851px" style="font-family:'ArialMT', 'Arial', sans-serif;font-size:24px;">x1</text>
            </g>
            <g transform="matrix(1.14095,0,0,1.14095,-596.547,188.2)">
                <text x="1460.31px" y="540.851px" style="font-family:'ArialMT', 'Arial', sans-serif;font-size:24px;">x1</text>
            </g>
            <g transform="matrix(1.14095,0,0,1.14095,-252.6,-42.2716)">
                <text x="1236.6px" y="597.915px" style="font-family:'ArialMT', 'Arial', sans-serif;font-size:24px;">c1</text>
            </g>
            <g transform="matrix(1.14095,0,0,1.14095,-262.635,-219.118)">
                <text x="1236.6px" y="597.915px" style="font-family:'ArialMT', 'Arial', sans-serif;font-size:24px;">c1</text>
            </g>
        </g>
    </g>
</svg>
