<?xml version="1.0" encoding="UTF-8" standalone="no"?>
<!DOCTYPE svg PUBLIC "-//W3C//DTD SVG 1.1//EN" "http://www.w3.org/Graphics/SVG/1.1/DTD/svg11.dtd">
<svg width="100%" height="100%" viewBox="0 0 1920 1080" version="1.1" xmlns="http://www.w3.org/2000/svg" xmlns:xlink="http://www.w3.org/1999/xlink" xml:space="preserve" xmlns:serif="http://www.serif.com/" style="fill-rule:evenodd;clip-rule:evenodd;stroke-linecap:round;stroke-linejoin:round;stroke-miterlimit:1.5;">
    <g transform="matrix(1.04872,0,0,1.04872,-99.5385,-94)">
        <circle cx="836.773" cy="604.548" r="381.418" style="fill:white;stroke:black;stroke-width:2.38px;"/>
    </g>
    <g transform="matrix(1,0,0,1,-597,-102.126)">
        <text x="1341.74px" y="523.225px" style="font-family:'ArialMT', 'Arial', sans-serif;font-size:24px;">y1</text>
    </g>
    <g transform="matrix(1,0,0,1,-597,134.025)">
        <text x="1341.74px" y="523.225px" style="font-family:'ArialMT', 'Arial', sans-serif;font-size:24px;">y1</text>
    </g>
    <path d="M778,140L778,940" style="fill:none;stroke:black;stroke-width:2.5px;"/>
    <g transform="matrix(-0.5,-0.866025,0.866025,-0.5,699.346,1483.77)">
        <path d="M778,140L778,940" style="fill:none;stroke:black;stroke-width:2.5px;"/>
    </g>
    <g transform="matrix(0.5,-0.866025,0.866025,0.5,-78.6537,943.768)">
        <path d="M778,140L778,940" style="fill:none;stroke:black;stroke-width:2.5px;"/>
    </g>
    <g transform="matrix(1,0,0,1,-328.09,-194.5)">
        <path d="M1452.5,514C1463.81,514 1473,523.186 1473,534.5C1473,545.814 1463.81,555 1452.5,555C1441.19,555 1432,545.814 1432,534.5C1432,523.186 1441.19,514 1452.5,514ZM1452.5,519.125C1460.99,519.125 1467.88,526.014 1467.88,534.5C1467.88,542.986 1460.99,549.875 1452.5,549.875C1444.01,549.875 1437.12,542.986 1437.12,534.5C1437.12,526.014 1444.01,519.125 1452.5,519.125Z" style="fill:rgb(120,120,120);"/>
    </g>
    <g transform="matrix(1,0,0,1,-328.09,205.5)">
        <path d="M1452.5,514C1463.81,514 1473,523.186 1473,534.5C1473,545.814 1463.81,555 1452.5,555C1441.19,555 1432,545.814 1432,534.5C1432,523.186 1441.19,514 1452.5,514ZM1452.5,519.125C1460.99,519.125 1467.88,526.014 1467.88,534.5C1467.88,542.986 1460.99,549.875 1452.5,549.875C1444.01,549.875 1437.12,542.986 1437.12,534.5C1437.12,526.014 1444.01,519.125 1452.5,519.125Z" style="fill:rgb(120,120,120);"/>
    </g>
    <g transform="matrix(1,0,0,1,-674.5,405.5)">
        <path d="M1452.5,514C1463.81,514 1473,523.186 1473,534.5C1473,545.814 1463.81,555 1452.5,555C1441.19,555 1432,545.814 1432,534.5C1432,523.186 1441.19,514 1452.5,514ZM1452.5,519.125C1460.99,519.125 1467.88,526.014 1467.88,534.5C1467.88,542.986 1460.99,549.875 1452.5,549.875C1444.01,549.875 1437.12,542.986 1437.12,534.5C1437.12,526.014 1444.01,519.125 1452.5,519.125Z" style="fill:rgb(120,120,120);"/>
    </g>
    <g transform="matrix(1,0,0,1,-1019.09,205.5)">
        <path d="M1452.5,514C1463.81,514 1473,523.186 1473,534.5C1473,545.814 1463.81,555 1452.5,555C1441.19,555 1432,545.814 1432,534.5C1432,523.186 1441.19,514 1452.5,514ZM1452.5,519.125C1460.99,519.125 1467.88,526.014 1467.88,534.5C1467.88,542.986 1460.99,549.875 1452.5,549.875C1444.01,549.875 1437.12,542.986 1437.12,534.5C1437.12,526.014 1444.01,519.125 1452.5,519.125Z" style="fill:rgb(120,120,120);"/>
    </g>
    <g transform="matrix(1,0,0,1,-1019.09,-194.5)">
        <path d="M1452.5,514C1463.81,514 1473,523.186 1473,534.5C1473,545.814 1463.81,555 1452.5,555C1441.19,555 1432,545.814 1432,534.5C1432,523.186 1441.19,514 1452.5,514ZM1452.5,519.125C1460.99,519.125 1467.88,526.014 1467.88,534.5C1467.88,542.986 1460.99,549.875 1452.5,549.875C1444.01,549.875 1437.12,542.986 1437.12,534.5C1437.12,526.014 1444.01,519.125 1452.5,519.125Z" style="fill:rgb(120,120,120);"/>
    </g>
    <g transform="matrix(1,0,0,1,-674.5,-394.5)">
        <path d="M1452.5,514C1463.81,514 1473,523.186 1473,534.5C1473,545.814 1463.81,555 1452.5,555C1441.19,555 1432,545.814 1432,534.5C1432,523.186 1441.19,514 1452.5,514ZM1452.5,519.125C1460.99,519.125 1467.88,526.014 1467.88,534.5C1467.88,542.986 1460.99,549.875 1452.5,549.875C1444.01,549.875 1437.12,542.986 1437.12,534.5C1437.12,526.014 1444.01,519.125 1452.5,519.125Z" style="fill:rgb(120,120,120);"/>
    </g>
    <g transform="matrix(1,0,0,1,-251.686,-183.719)">
        <text x="1380.99px" y="492.184px" style="font-family:'ArialMT', 'Arial', sans-serif;font-size:34px;">p0</text>
    </g>
    <g transform="matrix(1,0,0,1,-234.711,234.281)">
        <text x="1380.99px" y="492.184px" style="font-family:'ArialMT', 'Arial', sans-serif;font-size:34px;">p1</text>
    </g>
    <g transform="matrix(1,0,0,1,-579.711,477.281)">
        <text x="1380.99px" y="492.184px" style="font-family:'ArialMT', 'Arial', sans-serif;font-size:34px;">p2</text>
    </g>
    <g transform="matrix(1,0,0,1,-976.761,294.281)">
        <text x="1380.99px" y="492.184px" style="font-family:'ArialMT', 'Arial', sans-serif;font-size:34px;">p3</text>
    </g>
    <g transform="matrix(1,0,0,1,-1010.71,-130.719)">
        <text x="1380.99px" y="492.184px" style="font-family:'ArialMT', 'Arial', sans-serif;font-size:34px;">p4</text>
    </g>
    <g transform="matrix(1,0,0,1,-659.711,-371.719)">
        <text x="1380.99px" y="492.184px" style="font-family:'ArialMT', 'Arial', sans-serif;font-size:34px;">p5</text>
    </g>
    <g transform="matrix(5.23127e-17,0.869565,-1.80422,1.10027e-16,2318.8,-767.826)">
        <path d="M1274,662L1504,854L1274,854L1274,662Z" style="fill:white;stroke:rgb(59,59,59);stroke-width:10.59px;stroke-linecap:square;stroke-dasharray:26.48,26.48,0,0;"/>
    </g>
    <g transform="matrix(5.23127e-17,0.869565,-1.80422,1.10027e-16,2318.8,-567.826)">
        <path d="M1504,662L1504,854L1274,854L1504,662Z" style="fill:white;stroke:rgb(172,172,172);stroke-width:10.59px;stroke-linecap:square;stroke-dasharray:26.48,21.18,0,0;"/>
    </g>
    <g transform="matrix(0.45045,0,0,0.45045,636.784,260.841)">
        <path d="M458.534,534.723C429.02,482.379 373.591,450 313.5,450C373.591,450 429.02,482.379 458.534,534.723Z" style="fill:white;stroke:rgb(59,59,59);stroke-width:5.55px;"/>
    </g>
    <g transform="matrix(0.54955,0,0,0.54955,605.716,203.85)">
        <path d="M313.5,783C405.455,783 480,708.455 480,616.5C480,524.545 405.455,450 313.5,450C405.455,450 480,524.545 480,616.5C480,708.455 405.455,783 313.5,783Z" style="fill:white;stroke:rgb(172,172,172);stroke-width:4.55px;"/>
    </g>
    <g transform="matrix(1,0,0,1,-556.826,-47.3516)">
        <text x="1345.2px" y="548.778px" style="font-family:'ArialMT', 'Arial', sans-serif;font-size:24px;">a1</text>
    </g>
    <g transform="matrix(1,0,0,1,-525.686,50.6484)">
        <text x="1345.2px" y="548.778px" style="font-family:'ArialMT', 'Arial', sans-serif;font-size:24px;">a2</text>
    </g>
    <g transform="matrix(0.45045,0,0,0.45045,636.784,62.2973)">
        <path d="M313.5,783C405.455,783 480,708.455 480,616.5C480,708.455 405.455,783 313.5,783Z" style="fill:white;stroke:rgb(59,59,59);stroke-width:5.55px;"/>
    </g>
    <g transform="matrix(0.45045,0,0,0.45045,636.784,462.297)">
        <path d="M480,616.5C480,524.545 405.455,450 313.5,450C405.455,450 480,524.545 480,616.5Z" style="fill:white;stroke:rgb(172,172,172);stroke-width:5.55px;"/>
    </g>
    <g transform="matrix(0.171429,0,0,0.171429,573.669,264.583)">
        <circle cx="1320" cy="568" r="35" style="fill:rgb(59,59,59);"/>
    </g>
    <g transform="matrix(0.171429,0,0,0.171429,573.669,620.583)">
        <circle cx="1320" cy="568" r="35" style="fill:rgb(59,59,59);"/>
    </g>
    <g transform="matrix(1,0,0,1,-569,-218)">
        <text x="1460.31px" y="540.851px" style="font-family:'ArialMT', 'Arial', sans-serif;font-size:24px;">x1</text>
    </g>
    <g transform="matrix(1,0,0,1,-589,228)">
        <text x="1460.31px" y="540.851px" style="font-family:'ArialMT', 'Arial', sans-serif;font-size:24px;">x1</text>
    </g>
    <g transform="matrix(1,0,0,1,-287.543,26)">
        <text x="1236.6px" y="597.915px" style="font-family:'ArialMT', 'Arial', sans-serif;font-size:24px;">c1</text>
    </g>
    <g transform="matrix(1,0,0,1,-296.338,-129)">
        <text x="1236.6px" y="597.915px" style="font-family:'ArialMT', 'Arial', sans-serif;font-size:24px;">c1</text>
    </g>
</svg>
